<svg width="72" height="73" viewBox="0 0 72 73" fill="none" xmlns="http://www.w3.org/2000/svg">
<path d="M19.0824 0.847733C16.655 1.74402 13.6252 3.21393 12.2609 4.14607C9.72722 5.88486 6.44937 9.2549 4.76616 11.89C2.94119 14.7581 1.382 18.6838 0.815019 21.785C0.301194 24.7069 0.124013 31.429 0.496093 33.6339L0.602401 34.2075L1.13394 33.4009C2.00213 32.0923 3.18924 30.8554 4.97877 29.4034C5.90011 28.6685 7.21125 27.5212 7.90226 26.858C8.59326 26.1947 9.53232 25.3343 9.99299 24.9578C10.4537 24.5635 12.881 22.1435 15.3793 19.5443C17.8953 16.963 19.9683 14.8119 20.0037 14.776C20.1809 14.5968 20.9605 9.8823 21.12 7.98217C21.2263 6.76322 21.3857 5.09613 21.4743 4.25362C21.7401 1.9412 21.7047 1.27795 21.2971 0.865658C20.8542 0.417515 20.2341 0.417515 19.0824 0.847733Z" fill="url(#paint0_linear_156_117)"/>
<path d="M47.4315 2.22758C42.2047 3.01632 37.3499 5.14948 33.4519 8.35818C31.9459 9.61299 27.4632 13.8255 21.8997 19.2391C14.3695 26.5528 12.8281 27.9331 9.78055 30.0125C6.36096 32.3787 5.26243 33.0778 3.45519 34.0458C2.69331 34.4581 1.84284 34.96 1.54163 35.1572C1.25814 35.3543 0.992371 35.5336 0.974653 35.5336C0.832908 35.6053 1.55935 38.7961 1.89599 39.531C3.24257 42.5246 5.98888 45.1776 8.68203 46.0739C11.6232 47.0598 16.9032 46.4862 20.1102 44.855C21.9529 43.9049 24.965 41.4849 28.7389 37.9536C30.2627 36.5195 29.926 36.8243 34.2138 32.9523C44.8801 23.2724 46.9 21.677 50.0538 20.4222C53.5974 19.0419 57.5485 18.773 60.6315 19.741C64.4232 20.9421 68.3212 24.3121 70.3765 28.1482C70.784 28.919 71.1561 29.5464 71.2092 29.5464C71.4041 29.5464 71.1029 23.5234 70.8371 21.9997C70.3056 19.024 68.7287 15.0983 66.9569 12.3736C65.5926 10.2583 64.246 8.77048 62.0844 6.95998C59.3026 4.62963 56.9816 3.50031 53.2253 2.6578C51.613 2.29929 48.4946 2.06625 47.4315 2.22758Z" fill="url(#paint1_linear_156_117)"/>
<path d="M57.2649 28.0231C56.6271 28.1485 55.4045 28.525 54.5186 28.8297C50.3017 30.3534 48.5476 31.7875 36.9777 43.0986C29.2171 50.6991 27.4985 52.1152 24.451 53.4417C21.8819 54.5531 19.7734 55.0371 16.9385 55.1268C14.2631 55.2343 12.6862 55.0192 10.3297 54.2305C7.08724 53.1549 3.04751 49.0858 0.903623 44.7298L0 42.9014L0.106309 46.2177C0.194899 49.4981 0.336644 50.5199 1.09852 53.6389C1.89584 56.9193 3.49047 60.0922 5.84697 63.1575C9.1071 67.4059 13.0937 70.1665 17.2397 71.0807C19.3659 71.5467 24.8408 71.5288 26.9669 71.0627C31.0244 70.1665 35.4362 68.0691 38.8381 65.4161C40.0783 64.4481 43.1081 61.8489 43.4448 61.4545C43.8877 60.9526 51.3471 54.2305 53.2075 52.6351C54.5363 51.5237 56.7156 49.6415 58.0445 48.4584C59.3911 47.2753 61.0211 45.8592 61.6767 45.3214C63.9623 43.4213 64.7774 42.6505 66.3366 40.8041C68.2501 38.5634 68.7285 37.6312 68.9588 35.6953C69.1183 34.4046 69.1006 34.0999 68.8171 33.2753C67.9135 30.6761 65.9822 28.9552 62.9524 28.041C61.783 27.7004 58.9304 27.6825 57.2649 28.0231Z" fill="url(#paint2_linear_156_117)"/>
<path d="M70.4827 41.3774C70.1106 42.1482 69.3487 43.3492 68.7818 44.0125C67.7541 45.2673 61.2693 51.5234 56.4145 56.0048C54.182 58.0483 51.9318 59.8051 51.2231 60.056C51.1345 60.0919 50.9573 61.9203 50.8156 64.1431C50.6739 66.3659 50.4258 69.0189 50.2663 70.0407C50.1069 71.0803 50.036 72.0304 50.0714 72.1559C50.2486 72.604 51.6838 72.2993 53.7214 71.3492C54.1643 71.1521 55.1388 70.7039 55.883 70.3633C57.1587 69.7718 59.9759 67.8179 61.854 66.2225C62.8816 65.3441 65.2913 62.6732 65.8937 61.7231C66.1595 61.3287 66.6733 60.5579 67.0454 59.9843C67.4175 59.4286 67.7187 58.9267 67.7187 58.855C67.7187 58.8012 68.0376 58.2097 68.4274 57.5643C70.0043 54.9113 71.032 49.7846 71.2091 43.5643C71.2623 41.5746 71.28 39.9434 71.2446 39.9613C71.2091 39.9613 70.8725 40.6066 70.4827 41.3774Z" fill="url(#paint3_linear_156_117)"/>
<defs>
<linearGradient id="paint0_linear_156_117" x1="10.9712" y1="0.527275" x2="10.9712" y2="34.2075" gradientUnits="userSpaceOnUse">
<stop stop-color="#C8C8C8"/>
<stop offset="1" stop-color="#565656"/>
</linearGradient>
<linearGradient id="paint1_linear_156_117" x1="36.114" y1="2.1755" x2="36.114" y2="46.5586" gradientUnits="userSpaceOnUse">
<stop stop-color="#C8C8C8"/>
<stop offset="1" stop-color="#565656"/>
</linearGradient>
<linearGradient id="paint2_linear_156_117" x1="34.5298" y1="27.7764" x2="34.5298" y2="71.4214" gradientUnits="userSpaceOnUse">
<stop stop-color="#C8C8C8"/>
<stop offset="1" stop-color="#565656"/>
</linearGradient>
<linearGradient id="paint3_linear_156_117" x1="60.6628" y1="39.9611" x2="60.6628" y2="72.3589" gradientUnits="userSpaceOnUse">
<stop stop-color="#C8C8C8"/>
<stop offset="1" stop-color="#565656"/>
</linearGradient>
</defs>
</svg>
