        <svg version="1.0" xmlns="http://www.w3.org/2000/svg"
        width="800px" height="800px" viewBox="100 100 800 800"
         preserveAspectRatio="xMidYMid meet">

        <g transform="translate(0.000000,1024.000000) scale(0.100000,-0.100000)"
        fill="#000000" stroke="none">
        <path d="M4195 7261 c-137 -50 -308 -132 -385 -184 -143 -97 -328 -285 -423
        -432 -103 -160 -191 -379 -223 -552 -29 -163 -39 -538 -18 -661 l6 -32 30 45
        c49 73 116 142 217 223 52 41 126 105 165 142 39 37 92 85 118 106 26 22 163
        157 304 302 142 144 259 264 261 266 10 10 54 273 63 379 6 68 15 161 20 208
        15 129 13 166 -10 189 -25 25 -60 25 -125 1z"/>
        <path d="M5795 7184 c-295 -44 -569 -163 -789 -342 -85 -70 -338 -305 -652
        -607 -425 -408 -512 -485 -684 -601 -193 -132 -255 -171 -357 -225 -43 -23
        -91 -51 -108 -62 -16 -11 -31 -21 -32 -21 -8 -4 33 -182 52 -223 76 -167 231
        -315 383 -365 166 -55 464 -23 645 68 104 53 274 188 487 385 86 80 67 63 309
        279 602 540 716 629 894 699 200 77 423 92 597 38 214 -67 434 -255 550 -469
        23 -43 44 -78 47 -78 11 0 -6 336 -21 421 -30 166 -119 385 -219 537 -77 118
        -153 201 -275 302 -157 130 -288 193 -500 240 -91 20 -267 33 -327 24z"/>
        <path d="M6350 5745 c-36 -7 -105 -28 -155 -45 -238 -85 -337 -165 -990 -796
        -438 -424 -535 -503 -707 -577 -145 -62 -264 -89 -424 -94 -151 -6 -240 6
        -373 50 -183 60 -411 287 -532 530 l-51 102 6 -185 c5 -183 13 -240 56 -414
        45 -183 135 -360 268 -531 184 -237 409 -391 643 -442 120 -26 429 -25 549 1
        229 50 478 167 670 315 70 54 241 199 260 221 25 28 446 403 551 492 75 62
        198 167 273 233 76 66 168 145 205 175 129 106 175 149 263 252 108 125 135
        177 148 285 9 72 8 89 -8 135 -51 145 -160 241 -331 292 -66 19 -227 20 -321
        1z"/>
        <path d="M7096 5000 c-21 -43 -64 -110 -96 -147 -58 -70 -424 -419 -698 -669
        -126 -114 -253 -212 -293 -226 -5 -2 -15 -104 -23 -228 -8 -124 -22 -272 -31
        -329 -9 -58 -13 -111 -11 -118 10 -25 91 -8 206 45 25 11 80 36 122 55 72 33
        231 142 337 231 58 49 194 198 228 251 15 22 44 65 65 97 21 31 38 59 38 63 0
        3 18 36 40 72 89 148 147 434 157 781 3 111 4 202 2 201 -2 0 -21 -36 -43 -79z"/>
        </g>
</svg>
